<?xml version="1.0" encoding="UTF-8" standalone="no"?>
<!-- Created with Inkscape (http://www.inkscape.org/) -->

<svg
   width="50"
   height="50"
   viewBox="0 0 50 50"
   version="1.1"
   id="SVGRoot"
   sodipodi:docname="Humidity.svg"
   inkscape:version="1.2.2 (732a01da63, 2022-12-09)"
   inkscape:export-filename="Humidity.png"
   inkscape:export-xdpi="960"
   inkscape:export-ydpi="960"
   xml:space="preserve"
   xmlns:inkscape="http://www.inkscape.org/namespaces/inkscape"
   xmlns:sodipodi="http://sodipodi.sourceforge.net/DTD/sodipodi-0.dtd"
   xmlns:xlink="http://www.w3.org/1999/xlink"
   xmlns="http://www.w3.org/2000/svg"
   xmlns:svg="http://www.w3.org/2000/svg"><sodipodi:namedview
     id="namedview137"
     pagecolor="#ffffff"
     bordercolor="#999999"
     borderopacity="1"
     inkscape:showpageshadow="0"
     inkscape:pageopacity="0"
     inkscape:pagecheckerboard="0"
     inkscape:deskcolor="#1e1e1e"
     inkscape:document-units="px"
     showgrid="false"
     inkscape:zoom="5.6568543"
     inkscape:cx="-2.5632621"
     inkscape:cy="22.98097"
     inkscape:window-width="1366"
     inkscape:window-height="705"
     inkscape:window-x="-8"
     inkscape:window-y="-8"
     inkscape:window-maximized="1"
     inkscape:current-layer="layer1"
     inkscape:lockguides="true" /><defs
     id="defs132"><linearGradient
       inkscape:collect="always"
       id="linearGradient6039"><stop
         style="stop-color:#000000;stop-opacity:1;"
         offset="0"
         id="stop6035" /><stop
         style="stop-color:#000000;stop-opacity:0;"
         offset="1"
         id="stop6037" /></linearGradient><linearGradient
       inkscape:collect="always"
       id="linearGradient1093"><stop
         style="stop-color:#4c97f6;stop-opacity:0.82068968;"
         offset="0"
         id="stop1089" /><stop
         style="stop-color:#00e1ff;stop-opacity:1;"
         offset="1"
         id="stop1091" /></linearGradient><linearGradient
       inkscape:collect="always"
       xlink:href="#linearGradient6039"
       id="linearGradient6041"
       x1="1294.0289"
       y1="1140.116"
       x2="2364.5449"
       y2="1140.116"
       gradientUnits="userSpaceOnUse" /><linearGradient
       inkscape:collect="always"
       xlink:href="#linearGradient1093"
       id="linearGradient6049"
       x1="2395.6575"
       y1="1140.1161"
       x2="1143.953"
       y2="1256.0342"
       gradientUnits="userSpaceOnUse" /></defs><g
     inkscape:label="Layer 1"
     inkscape:groupmode="layer"
     id="layer1"
     transform="translate(0,504.59934)"><path
       id="path5697"
       style="color:#000000;fill:#000000;stroke-width:0.985232;stroke-linecap:round;stroke-linejoin:round;-inkscape-stroke:none"
       d="m 24.816103,-499.59453 c -0.0013,6.6e-4 -0.0025,0.001 -0.0038,0.002 -0.09341,0.024 -0.271933,0.0994 -0.354437,0.15052 -0.02831,0.0104 0.03296,-0.0151 0.0057,-0.002 -0.0019,6.6e-4 -0.0038,10e-4 -0.0057,0.002 -0.103322,0.0723 -0.192128,0.16455 -0.261547,0.27158 -0.0025,0.004 -0.005,0.008 -0.0075,0.0117 -6.485911,9.90908 -12.712728,17.81574 -12.684994,26.78975 -0.0013,0.006 -0.0026,0.013 -0.0038,0.0195 1.81e-4,0.0301 0.0015,0.0598 0.0019,0.0898 4e-4,0.0457 -7.28e-4,0.091 0,0.13677 0.0018,0.01 0.0037,0.0196 0.0057,0.0293 0.186261,6.9846 6.234393,12.51372 13.530281,12.4942 7.270019,-0.0194 13.269226,-5.54164 13.454469,-12.49224 0.0021,-0.0104 0.004,-0.0208 0.0057,-0.0312 9.55e-4,-0.0601 -0.0023,-0.1197 -0.0019,-0.17975 3.84e-4,-0.0399 0.0038,-0.0792 0.0038,-0.11918 -0.0012,-0.007 -0.0025,-0.0143 -0.0038,-0.0215 -0.0067,-8.94695 -6.219883,-16.83995 -12.690679,-26.72722 -0.0019,-0.002 -0.0038,-0.004 -0.0057,-0.006 -0.06831,-0.10438 -0.155115,-0.19453 -0.255861,-0.26571 -0.0019,-6.7e-4 -0.0038,-0.001 -0.0057,-0.002 -0.02726,-0.0131 0.03401,0.0124 0.0057,0.002 -0.0825,-0.0511 -0.261028,-0.12652 -0.354436,-0.15052 -0.0013,-6.7e-4 -0.0025,-10e-4 -0.0038,-0.002 -0.06177,-0.006 -0.123966,-0.006 -0.185736,0 -0.06114,-0.006 -0.122698,-0.006 -0.18384,0 z m 0.183839,2.75869 c 6.217707,9.41805 11.604961,16.83126 11.555417,24.52536 -0.06364,5.87561 -5.135076,10.69334 -11.521301,10.71042 -6.396893,0.0171 -11.507154,-4.79054 -11.589534,-10.67916 -0.06434,-7.7051 5.329548,-15.12625 11.555418,-24.55662 z"
       sodipodi:nodetypes="ccccccccccccccccccccccccccccccscc"
       inkscape:label="Drop" /><path
       id="path6334"
       style="color:#000000;fill:#000000;stroke:none;stroke-linecap:round;stroke-linejoin:round;-inkscape-stroke:none"
       d="m 21.587893,-480.23801 c -0.818847,0 -1.636895,0.30877 -2.25586,0.92773 -1.237938,1.23794 -1.23793,3.27574 0,4.51367 1.237938,1.23794 3.275734,1.23794 4.513672,0 1.237931,-1.23793 1.237938,-3.27573 0,-4.51367 -0.618965,-0.61896 -1.438966,-0.92773 -2.257812,-0.92773 z m 8.648437,0.27148 a 1,1 0 0 0 -0.707031,0.29297 l -10.5625,10.5625 a 1,1 0 0 0 0,1.41406 1,1 0 0 0 1.414062,0 l 10.5625,-10.5625 a 1,1 0 0 0 0,-1.41406 1,1 0 0 0 -0.707031,-0.29297 z m -8.648437,1.7168 c 0.302814,0 0.606933,0.1167 0.84375,0.35352 0.47364,0.47364 0.473633,1.21191 0,1.68554 -0.473641,0.47364 -1.211907,0.47364 -1.685547,0 -0.473634,-0.47363 -0.473641,-1.2119 0,-1.68554 0.236817,-0.23682 0.538982,-0.35352 0.841797,-0.35352 z m 6.734375,4.74609 c -0.818848,0 -1.636895,0.30877 -2.25586,0.92774 -1.237938,1.23794 -1.237938,3.27573 0,4.51367 1.237931,1.23793 3.273781,1.23794 4.511719,0 1.23793,-1.23793 1.23793,-3.27574 0,-4.51367 -0.618969,-0.61897 -1.437012,-0.92774 -2.255859,-0.92774 z m 0,1.98633 c 0.302815,0 0.604976,0.11865 0.841796,0.35547 0.473641,0.47364 0.473634,1.21191 0,1.68555 -0.47364,0.47364 -1.209953,0.47364 -1.683593,0 -0.473641,-0.47364 -0.473641,-1.21191 0,-1.68555 0.236817,-0.23682 0.538981,-0.35547 0.841797,-0.35547 z"
       inkscape:label="%" /></g></svg>
